# xmcd CD database file
#
# Track frame offsets:
#	150
#	20625
#	40175
#	66817
#	88152
#	106582
#	126997
#	152152
#	172345
#	193717
#	214445
#
# Disc length: 3178 seconds
#
# Revision: 4
# Processed by: cddbd v1.5.2PL0 Copyright (c) Steve Scherf et al.
# Submitted via: CDex 1.70beta3
#
DISCID=a00c680b
DTITLE=HOUND DOG - ALL OF THE BEST:HOME GROWN [CD1]
DYEAR=1997
DGENRE=Rock
TTITLE0=BRIDGE ～あの橋をわたるとき～
TTITLE1=DESTINY
TTITLE2=Bad Boy Blues (Live Version)
TTITLE3=ONLY LOVE
TTITLE4=GLORY
TTITLE5=15の好奇心
TTITLE6=涙のBirthday (Live Version)
TTITLE7=NO NAME HEROES
TTITLE8=Lonely Soldier
TTITLE9=AMBITIOUS (Live Version)
TTITLE10=ROAD
EXTD=YEAR: 1997
EXTT0=
EXTT1=
EXTT2=
EXTT3=
EXTT4=
EXTT5=
EXTT6=
EXTT7=
EXTT8=
EXTT9=
EXTT10=
PLAYORDER=
